<?xml version="1.0" standalone="no"?>
<!DOCTYPE svg PUBLIC "-//W3C//DTD SVG 20010904//EN"
 "http://www.w3.org/TR/2001/REC-SVG-20010904/DTD/svg10.dtd">
<svg version="1.0" xmlns="http://www.w3.org/2000/svg"
 width="768.000000pt" height="768.000000pt" viewBox="0 0 768.000000 768.000000"
 preserveAspectRatio="xMidYMid meet">
<metadata>
Created by potrace 1.16, written by Peter Selinger 2001-2019
</metadata>
<g transform="translate(0.000000,768.000000) scale(0.100000,-0.100000)"
fill="#000000" stroke="none">
<path d="M3562 6780 c-612 -45 -1010 -237 -1113 -538 -17 -50 -19 -87 -19
-399 l0 -343 705 0 705 0 0 -125 0 -125 -1173 0 c-1127 0 -1176 -1 -1229 -19
-346 -119 -548 -632 -548 -1391 0 -759 202 -1272 548 -1391 50 -17 87 -19 398
-19 l343 0 4 393 c3 363 5 398 25 475 84 322 304 543 637 639 54 16 148 18
975 23 1018 7 957 2 1110 77 54 26 95 56 145 107 78 79 122 153 156 266 23 74
23 84 26 695 2 341 0 733 -5 870 l-8 250 -33 67 c-122 247 -432 406 -911 469
-177 23 -555 33 -738 19z m-371 -408 c187 -97 186 -363 -1 -456 -204 -103
-429 81 -365 299 19 66 75 133 138 164 64 32 159 29 228 -7z"/>
</g>
</svg>
